<svg xmlns="http://www.w3.org/2000/svg" width="94" height="37.871" viewBox="0 0 94 37.871">
  <g id="Group_100" data-name="Group 100" transform="translate(-119.542 -341.873)">
    <g id="Shippers" transform="translate(119.542 347.745)">
      <text id="Shippers-2" data-name="Shippers" transform="translate(0 25)" fill="#fff" font-size="26" font-family="Roboto-BoldItalic, Roboto" font-weight="700" font-style="italic" letter-spacing="-0.044em"><tspan x="0" y="0">Shippers</tspan></text>
    </g>
    <path id="Path_270" data-name="Path 270" d="M585.494,1181.192a.945.945,0,0,0,.224-.634c-.015-.149-.078-.271-.349-.585a3.968,3.968,0,0,0-1.145-1.045,3.2,3.2,0,0,0-.622-.261c-.228-.211-.565-.507-1-.833a5.759,5.759,0,0,0-.933-.647c-.949-.387-1.586.368-3.372.323-.116,0-.141-.007-.734-.062-2.439-.228-3.659-.342-3.87-.336-1.089.031-.752.392-4.265,1.807a8.855,8.855,0,0,1-3.864.943,9.259,9.259,0,0,1-1.866-.336c-2.5-.6-2.857-1.1-4.806-1.484a6.752,6.752,0,0,0-3.378-.034,5.279,5.279,0,0,0-1.643.846c-1.121.821-3.713,1.573-9.893,1.549-.116.033-.317.1-.336.23-.029.2.411.41.566.485,1.278.617,4.612.235,5.715.124,2.318-.232,3.485-.338,3.733.177s-.42,1.545-1.251,1.885a2.633,2.633,0,0,1-1.073.14,4.859,4.859,0,0,1-.815-.073.934.934,0,0,0-.943.4,1.034,1.034,0,0,1-.361.331,1.073,1.073,0,0,1-.154.068,2.658,2.658,0,0,0-1.2.841c-.218.274-.46.551-.727.826a12.337,12.337,0,0,1-5.581,3.248.3.3,0,0,0-.031.243c.055.127.241.155.324.168a4.98,4.98,0,0,0,2.458-.243l5.027-3.428a2.133,2.133,0,0,1,.529-.236,2.4,2.4,0,0,1,1.384.043c1,.291,1.235.793,2.666,1.652a4.81,4.81,0,0,0,1.166.607c.57.112,1.22-.022,3.425-1.543,1.736-1.2,2.034-1.6,2.961-1.792a6.141,6.141,0,0,1,2.091.075,38.05,38.05,0,0,1,4.679,1.045c2.2.554,2.553.611,3.086.529a4.972,4.972,0,0,0,2.806-1.611,2.9,2.9,0,0,0,.386,1.288,1.96,1.96,0,0,0,2.576.946c.332.071.845.177,1.475.292,1.673.308,3.377.541,4.082.635a10.1,10.1,0,0,1,2.526.448c.674.261.736.418,1.692.821,1.165.491,1.761.733,2.42.529a1.715,1.715,0,0,0,1.163-1.095,1.452,1.452,0,0,0-.143-.977,2.48,2.48,0,0,1-.989.13,2.635,2.635,0,0,1-1.108-.367,24.508,24.508,0,0,0-2.47-1.08,13.962,13.962,0,0,0-2.23-.653c-.89-.182-1-.112-2.23-.3-1.462-.222-2.738-.424-2.79-.868-.008-.07.015-.136.457-.579a9.669,9.669,0,0,1,1.462-1.3,4.469,4.469,0,0,1,1.238-.672,2.477,2.477,0,0,1,1.207-.155c.542.085.543.321,1,.379A1.874,1.874,0,0,0,585.494,1181.192Z" transform="translate(-396.3 -835.201)" fill="#fff"/>
  </g>
</svg>
